<svg width="25" height="25" viewBox="0 0 25 25" fill="none" xmlns="http://www.w3.org/2000/svg">
<g clip-path="url(#clip0)">
<path d="M7.50023 17.5H15.0002C17.0705 17.5 18.7502 15.8203 18.7502 13.75H20.0002C22.758 13.75 25.0002 11.5078 25.0002 8.75C25.0002 5.99219 22.758 3.75 20.0002 3.75H4.68773C4.1682 3.75 3.75023 4.16797 3.75023 4.6875V13.75C3.75023 15.8203 5.42992 17.5 7.50023 17.5ZM20.0002 6.25C21.3791 6.25 22.5002 7.37109 22.5002 8.75C22.5002 10.1289 21.3791 11.25 20.0002 11.25H18.7502V6.25H20.0002ZM21.8635 21.25H1.88695C0.0275749 21.25 -0.495863 18.75 0.4807 18.75H23.2659C24.2424 18.75 23.7268 21.25 21.8635 21.25V21.25Z" fill="#D7B19D"/>
</g>
<defs>
<clipPath id="clip0">
<rect width="25" height="25" fill="white"/>
</clipPath>
</defs>
</svg>
